<svg xmlns="http://www.w3.org/2000/svg" viewBox="0 0 471.15 187.95"><g id="Слой_2" data-name="Слой 2"><g id="Слой_1-2" data-name="Слой 1"><polygon points="400.23 127.83 400.23 0 369.12 0 328.56 82.17 288 0 256.89 0 256.89 127.83 287.02 127.83 287.02 64.5 319.43 127.83 337.69 127.83 370.1 64.5 370.1 127.83 400.23 127.83"/><polygon points="130.2 127.83 227.85 127.83 227.85 97.7 160.34 97.7 160.34 78.98 224.27 78.98 224.27 48.85 160.34 48.85 160.34 30.13 227.85 30.13 227.85 0 130.2 0 130.2 127.83"/><path d="M441,0V115.61c0,24.06-19.14,42.2-44.52,42.2h-6.15V188h6.15c41.86,0,74.65-31.78,74.65-72.34V0Z"/><polygon points="0 0 0 30.13 42.01 30.13 42.01 127.83 72.14 127.83 72.14 30.13 114.14 30.13 114.14 0 0 0"/></g></g></svg>